<?xml version="1.0" encoding="UTF-8"?>
<!DOCTYPE svg PUBLIC "-//W3C//DTD SVG 1.1//EN" "http://www.w3.org/Graphics/SVG/1.1/DTD/svg11.dtd">
<svg xmlns="http://www.w3.org/2000/svg" version="1.1" width="534px" height="534px" style="shape-rendering:geometricPrecision; text-rendering:geometricPrecision; image-rendering:optimizeQuality; fill-rule:evenodd; clip-rule:evenodd" xmlns:xlink="http://www.w3.org/1999/xlink">
<g><path style="opacity:0.99" fill="#fdd351" d="M 467.5,63.5 C 465.62,63.2291 464.287,63.8958 463.5,65.5C 460.189,66.8114 457.855,69.1447 456.5,72.5C 453.043,82.0396 449.876,91.7063 447,101.5C 446.617,100.944 446.117,100.611 445.5,100.5C 444.899,97.0321 443.899,93.6988 442.5,90.5C 441.067,83.0898 438.567,76.0898 435,69.5C 433.127,67.2911 430.96,65.4578 428.5,64C 423.05,61.853 417.716,59.5196 412.5,57C 417.906,54.5903 423.239,52.0903 428.5,49.5C 431.432,48.2003 433.766,46.2003 435.5,43.5C 438.448,37.5241 440.781,31.1908 442.5,24.5C 443.105,19.519 444.605,14.8523 447,10.5C 449.899,21.7639 453.565,32.7639 458,43.5C 459.873,45.7089 462.04,47.5422 464.5,49C 470.252,51.4735 475.919,54.1402 481.5,57C 476.958,59.4378 472.291,61.6044 467.5,63.5 Z"/></g>
<g><path style="opacity:0.976" fill="#83adc0" d="M 114.5,23.5 C 114.932,24.7095 115.599,25.7095 116.5,26.5C 117.412,27.7382 117.579,29.0715 117,30.5C 110.607,36.779 103.107,41.1124 94.5,43.5C 91.5128,42.5128 89.5128,40.5128 88.5,37.5C 86.4484,26.029 91.2817,19.3623 103,17.5C 107.636,18.0673 111.47,20.0673 114.5,23.5 Z"/></g>
<g><path style="opacity:0.992" fill="#9d88d8" d="M 183.5,26.5 C 182.761,26.369 182.094,26.5357 181.5,27C 198.278,40.386 207.278,57.886 208.5,79.5C 205.167,81.8333 201.833,84.1667 198.5,86.5C 197.706,51.8826 180.539,30.5492 147,22.5C 141,22.5 135,22.5 129,22.5C 124.63,23.4622 120.463,24.7955 116.5,26.5C 115.599,25.7095 114.932,24.7095 114.5,23.5C 124.099,19.3129 134.265,17.3129 145,17.5C 158.702,17.3022 171.535,20.3022 183.5,26.5 Z"/></g>
<g><path style="opacity:0.977" fill="#83adbf" d="M 442.5,24.5 C 440.781,31.1908 438.448,37.5241 435.5,43.5C 428.181,40.1737 421.515,35.8404 415.5,30.5C 415.957,27.5944 416.957,24.9278 418.5,22.5C 427.073,15.4804 435.073,16.1471 442.5,24.5 Z"/></g>
<g><path style="opacity:0.997" fill="#a083d6" d="M 377.5,17.5 C 391.498,16.6431 405.165,18.3098 418.5,22.5C 416.957,24.9278 415.957,27.5944 415.5,30.5C 414.596,29.791 414.263,28.791 414.5,27.5C 408.626,26.2538 402.46,25.2538 396,24.5C 390.992,24.9636 386.159,25.6303 381.5,26.5C 379.435,26.5172 377.435,26.8505 375.5,27.5C 365.793,29.506 356.793,33.1727 348.5,38.5C 350.933,34.2319 354.266,30.7319 358.5,28C 364.662,23.9197 371.329,20.9197 378.5,19C 377.944,18.6174 377.611,18.1174 377.5,17.5 Z"/></g>
<g><path style="opacity:1" fill="#766eca" d="M 375.5,27.5 C 373.615,29.3115 371.281,30.4782 368.5,31C 365.832,33.0005 363.665,35.1672 362,37.5C 361.667,37.1667 361.333,36.8333 361,36.5C 357.201,41.3006 353.034,45.8006 348.5,50C 348.833,50.3333 349.167,50.6667 349.5,51C 347.333,53.1667 345.167,55.3333 343,57.5C 342.291,60.5355 341.124,63.3688 339.5,66C 340.634,67.016 340.301,67.6827 338.5,68C 338.456,70.6449 338.456,73.1449 338.5,75.5C 335.63,74.5667 333.296,72.9 331.5,70.5C 328.676,65.0869 328.842,59.7535 332,54.5C 336.046,47.6198 341.546,42.2865 348.5,38.5C 356.793,33.1727 365.793,29.506 375.5,27.5 Z"/></g>
<g><path style="opacity:1" fill="#a67dd2" d="M 198.5,86.5 C 195.738,88.5958 192.738,90.2625 189.5,91.5C 190.879,55.2123 173.545,34.879 137.5,30.5C 126.238,31.3095 115.905,34.8095 106.5,41C 102.561,44.4294 99.2281,48.2628 96.5,52.5C 94.6208,51.6586 92.6208,51.3253 90.5,51.5C 91.3994,48.605 92.7328,45.9384 94.5,43.5C 103.107,41.1124 110.607,36.779 117,30.5C 117.579,29.0715 117.412,27.7382 116.5,26.5C 120.463,24.7955 124.63,23.4622 129,22.5C 135,22.5 141,22.5 147,22.5C 180.539,30.5492 197.706,51.8826 198.5,86.5 Z"/></g>
<g><path style="opacity:1" fill="#9398df" d="M 183.5,26.5 C 198.854,33.6773 211.354,44.3439 221,58.5C 223,61.8333 223,65.1667 221,68.5C 217.284,72.7185 213.117,76.3851 208.5,79.5C 207.278,57.886 198.278,40.386 181.5,27C 182.094,26.5357 182.761,26.369 183.5,26.5 Z"/></g>
<g><path style="opacity:1" fill="#9399df" d="M 340.5,31.5 C 341.239,31.369 341.906,31.5357 342.5,32C 331.229,44.7134 324.396,59.5467 322,76.5C 321.329,75.7476 320.496,75.4142 319.5,75.5C 312.188,72.5425 309.355,67.2091 311,59.5C 318.448,47.5493 328.281,38.216 340.5,31.5 Z"/></g>
<g><path style="opacity:1" fill="#ae75ce" d="M 415.5,30.5 C 421.515,35.8404 428.181,40.1737 435.5,43.5C 433.766,46.2003 431.432,48.2003 428.5,49.5C 419.441,40.4785 408.441,36.1452 395.5,36.5C 396.125,33.0295 395.125,30.1962 392.5,28C 388.974,26.6632 385.308,26.1632 381.5,26.5C 386.159,25.6303 390.992,24.9636 396,24.5C 402.46,25.2538 408.626,26.2538 414.5,27.5C 414.263,28.791 414.596,29.791 415.5,30.5 Z"/></g>
<g><path style="opacity:1" fill="#9691dc" d="M 377.5,17.5 C 377.611,18.1174 377.944,18.6174 378.5,19C 371.329,20.9197 364.662,23.9197 358.5,28C 354.266,30.7319 350.933,34.2319 348.5,38.5C 341.546,42.2865 336.046,47.6198 332,54.5C 328.842,59.7535 328.676,65.0869 331.5,70.5C 330.691,74.463 329.358,78.1297 327.5,81.5C 324.527,79.8532 321.86,77.8532 319.5,75.5C 320.496,75.4142 321.329,75.7476 322,76.5C 324.396,59.5467 331.229,44.7134 342.5,32C 341.906,31.5357 341.239,31.369 340.5,31.5C 351.604,23.7894 363.937,19.1228 377.5,17.5 Z"/></g>
<g><path style="opacity:1" fill="#9c67c6" d="M 395.5,36.5 C 387.621,42.8718 380.121,49.8718 373,57.5C 369.159,63.1777 365.826,69.1777 363,75.5C 359.443,81.0344 354.61,82.701 348.5,80.5C 347.833,80.5 347.5,80.1667 347.5,79.5C 349.467,77.6961 351.301,75.6961 353,73.5C 356.136,69.5073 358.469,65.5073 360,61.5C 360.914,62.6537 361.747,62.487 362.5,61C 361.359,60.2588 361.359,59.4255 362.5,58.5C 365.012,55.4895 367.678,52.6561 370.5,50C 376.793,45.6103 382.96,41.1103 389,36.5C 391.086,35.348 393.252,35.348 395.5,36.5 Z"/></g>
<g><path style="opacity:1" fill="#8a66c6" d="M 381.5,26.5 C 385.308,26.1632 388.974,26.6632 392.5,28C 395.125,30.1962 396.125,33.0295 395.5,36.5C 393.252,35.348 391.086,35.348 389,36.5C 382.96,41.1103 376.793,45.6103 370.5,50C 367.678,52.6561 365.012,55.4895 362.5,58.5C 361.359,59.4255 361.359,60.2588 362.5,61C 361.747,62.487 360.914,62.6537 360,61.5C 358.469,65.5073 356.136,69.5073 353,73.5C 351.301,75.6961 349.467,77.6961 347.5,79.5C 344.256,78.5371 341.256,77.2038 338.5,75.5C 338.456,73.1449 338.456,70.6449 338.5,68C 340.301,67.6827 340.634,67.016 339.5,66C 341.124,63.3688 342.291,60.5355 343,57.5C 345.167,55.3333 347.333,53.1667 349.5,51C 349.167,50.6667 348.833,50.3333 348.5,50C 353.034,45.8006 357.201,41.3006 361,36.5C 361.333,36.8333 361.667,37.1667 362,37.5C 363.665,35.1672 365.832,33.0005 368.5,31C 371.281,30.4782 373.615,29.3115 375.5,27.5C 377.435,26.8505 379.435,26.5172 381.5,26.5 Z"/></g>
<g><path style="opacity:0.949" fill="#82aec0" d="M 273.5,84.5 C 267.833,84.5 262.167,84.5 256.5,84.5C 256.5,76.1667 256.5,67.8333 256.5,59.5C 248.329,58.5993 240.329,56.9326 232.5,54.5C 232.197,49.57 232.531,44.7367 233.5,40C 254.843,31.3922 276.176,31.3922 297.5,40C 298.469,44.7367 298.803,49.57 298.5,54.5C 290.329,56.9592 281.996,58.6259 273.5,59.5C 273.5,67.8333 273.5,76.1667 273.5,84.5 Z"/></g>
<g><path style="opacity:1" fill="#93cfdf" d="M 255.5,35.5 C 268.478,34.553 281.145,36.053 293.5,40C 297.376,42.1276 297.376,44.4609 293.5,47C 292.127,47.8749 290.627,48.3749 289,48.5C 272.864,46.4526 256.697,45.9526 240.5,47C 238.919,46.2935 237.419,45.4601 236,44.5C 235.219,43.0563 235.386,41.723 236.5,40.5C 242.801,38.1681 249.134,36.5014 255.5,35.5 Z"/></g>
<g><path style="opacity:0.999" fill="#bc73cc" d="M 189.5,91.5 C 179.334,98.0842 169,104.418 158.5,110.5C 151.351,112.407 144.684,115.407 138.5,119.5C 132.075,123.046 125.408,126.046 118.5,128.5C 112.371,128.603 107.371,126.269 103.5,121.5C 104.671,120.655 106.005,119.989 107.5,119.5C 114.823,117.686 120.489,113.686 124.5,107.5C 138.447,113.875 150.614,111.208 161,99.5C 170.192,81.8219 166.358,67.6553 149.5,57C 132.361,51.5396 119.695,56.7063 111.5,72.5C 108.694,67.5625 105.861,62.5625 103,57.5C 101.629,55.9586 100.129,54.6253 98.5,53.5C 97.8333,53.1667 97.1667,52.8333 96.5,52.5C 99.2281,48.2628 102.561,44.4294 106.5,41C 115.905,34.8095 126.238,31.3095 137.5,30.5C 173.545,34.879 190.879,55.2123 189.5,91.5 Z"/></g>
<g><path style="opacity:1" fill="#bf75cc" d="M 395.5,36.5 C 408.441,36.1452 419.441,40.4785 428.5,49.5C 423.239,52.0903 417.906,54.5903 412.5,57C 417.716,59.5196 423.05,61.853 428.5,64C 430.96,65.4578 433.127,67.2911 435,69.5C 438.567,76.0898 441.067,83.0898 442.5,90.5C 438.424,107.923 428.09,120.256 411.5,127.5C 405.167,124.833 398.833,122.167 392.5,119.5C 386.189,115.341 379.523,111.675 372.5,108.5C 365.504,105.337 358.838,101.671 352.5,97.5C 349.573,92.3092 348.24,86.6425 348.5,80.5C 354.61,82.701 359.443,81.0344 363,75.5C 365.826,69.1777 369.159,63.1777 373,57.5C 380.121,49.8718 387.621,42.8718 395.5,36.5 Z"/></g>
<g><path style="opacity:1" fill="#7a67c7" d="M 86.5,51.5 C 87.8333,51.5 89.1667,51.5 90.5,51.5C 92.6208,51.3253 94.6208,51.6586 96.5,52.5C 97.1667,52.8333 97.8333,53.1667 98.5,53.5C 96.1166,58.9806 93.1166,63.814 89.5,68C 90.1667,68.3333 90.8333,68.6667 91.5,69C 88.8758,69.5764 88.2092,70.9098 89.5,73C 87.5455,75.1684 86.8788,77.5017 87.5,80C 86.216,83.576 85.5493,87.076 85.5,90.5C 87.332,92.2982 87.6654,94.1315 86.5,96C 87,96.5 87.5,97 88,97.5C 88.6667,96.1667 89.3333,96.1667 90,97.5C 90.3333,96.8333 90.6667,96.1667 91,95.5C 91.9187,104.536 95.4187,112.703 101.5,120C 100.619,120.708 99.9528,121.542 99.5,122.5C 98.1667,122.833 96.8333,123.167 95.5,123.5C 93.3596,121.3 91.8596,118.633 91,115.5C 89,114.167 87.3333,112.5 86,110.5C 84.5701,110.694 83.0701,110.694 81.5,110.5C 80.684,108.713 79.684,107.046 78.5,105.5C 79.3029,102.946 78.3029,101.112 75.5,100C 78.7698,97.5377 79.1031,94.871 76.5,92C 77.1667,91.6667 77.8333,91.3333 78.5,91C 78.0164,87.5903 77.3497,83.9236 76.5,80C 77.7935,77.9097 78.7935,75.9097 79.5,74C 78.9045,65.9522 81.2379,58.4522 86.5,51.5 Z"/></g>
<g><path style="opacity:1" fill="#7371cc" d="M 86.5,51.5 C 81.2379,58.4522 78.9045,65.9522 79.5,74C 78.7935,75.9097 77.7935,77.9097 76.5,80C 77.3497,83.9236 78.0164,87.5903 78.5,91C 77.8333,91.3333 77.1667,91.6667 76.5,92C 79.1031,94.871 78.7698,97.5377 75.5,100C 78.3029,101.112 79.3029,102.946 78.5,105.5C 79.684,107.046 80.684,108.713 81.5,110.5C 83.0701,110.694 84.5701,110.694 86,110.5C 87.3333,112.5 89,114.167 91,115.5C 91.8596,118.633 93.3596,121.3 95.5,123.5C 93.1879,124.341 90.8546,125.341 88.5,126.5C 81.0261,126.927 76.0261,123.593 73.5,116.5C 68.0482,97.1888 69.2148,78.1888 77,59.5C 79.1314,55.5299 82.298,52.8633 86.5,51.5 Z"/></g>
<g><path style="opacity:1" fill="#c681d1" d="M 124.5,107.5 C 125.863,103.462 125.696,99.4618 124,95.5C 120.735,88.427 116.902,81.7604 112.5,75.5C 112.443,74.391 112.11,73.391 111.5,72.5C 119.695,56.7063 132.361,51.5396 149.5,57C 166.358,67.6553 170.192,81.8219 161,99.5C 150.614,111.208 138.447,113.875 124.5,107.5 Z"/></g>
<g><path style="opacity:1" fill="#c681d1" d="M 391.5,54.5 C 414.645,55.4761 425.145,67.4761 423,90.5C 415.693,108.069 402.86,114.236 384.5,109C 370.208,101.242 365.042,89.409 369,73.5C 373.131,63.0383 380.631,56.7049 391.5,54.5 Z"/></g>
<g><path style="opacity:0.999" fill="#9790db" d="M 88.5,37.5 C 89.5128,40.5128 91.5128,42.5128 94.5,43.5C 92.7328,45.9384 91.3994,48.605 90.5,51.5C 89.1667,51.5 87.8333,51.5 86.5,51.5C 82.298,52.8633 79.1314,55.5299 77,59.5C 69.2148,78.1888 68.0482,97.1888 73.5,116.5C 67.1751,106.378 64.1751,95.2111 64.5,83C 64.4343,77.2391 65.1009,71.5724 66.5,66C 66.3166,64.3164 65.6499,64.1498 64.5,65.5C 70.1542,54.2153 78.1542,44.8819 88.5,37.5 Z"/></g>
<g><path style="opacity:1" fill="#9399df" d="M 73.5,116.5 C 76.0261,123.593 81.0261,126.927 88.5,126.5C 91.3325,130.165 94.6659,133.332 98.5,136C 97.5842,136.278 96.9175,136.778 96.5,137.5C 87.0665,141.701 77.2332,145.034 67,147.5C 62.057,147.369 58.7237,145.036 57,140.5C 49.1191,114.322 51.6191,89.3223 64.5,65.5C 65.6499,64.1498 66.3166,64.3164 66.5,66C 65.1009,71.5724 64.4343,77.2391 64.5,83C 64.1751,95.2111 67.1751,106.378 73.5,116.5 Z"/></g>
<g><path style="opacity:1" fill="#cc8ed6" d="M 134.5,66.5 C 145.801,66.2952 152.467,71.7952 154.5,83C 151.849,95.8195 144.183,100.82 131.5,98C 121.179,91.6885 119.013,83.1885 125,72.5C 127.843,69.8373 131.009,67.8373 134.5,66.5 Z"/></g>
<g><path style="opacity:1" fill="#cc8ed6" d="M 392.5,66.5 C 409.374,67.9113 414.874,76.578 409,92.5C 400.612,101.27 391.946,101.604 383,93.5C 376.372,80.878 379.539,71.878 392.5,66.5 Z"/></g>
<g><path style="opacity:0.997" fill="#9c8ad8" d="M 463.5,65.5 C 468.858,84.7188 466.358,103.052 456,120.5C 450.976,127.017 445.809,133.35 440.5,139.5C 437.011,138.342 433.678,137.009 430.5,135.5C 452.077,119.756 460.744,98.7557 456.5,72.5C 457.855,69.1447 460.189,66.8114 463.5,65.5 Z"/></g>
<g><path style="opacity:0.966" fill="#fdd351" d="M 479.5,119.5 C 479.063,117.926 478.063,116.759 476.5,116C 472.35,114.424 468.35,112.591 464.5,110.5C 469.042,108.14 473.709,105.974 478.5,104C 479.252,103.329 479.586,102.496 479.5,101.5C 481.173,100.657 482.34,99.3237 483,97.5C 485.135,90.0943 487.469,82.761 490,75.5C 492.667,83.5 495.333,91.5 498,99.5C 499.5,101 501,102.5 502.5,104C 507.289,106.148 511.956,108.481 516.5,111C 510.139,113.263 504.306,116.429 499,120.5C 495.99,128.867 492.99,137.2 490,145.5C 487.282,138.681 484.949,131.681 483,124.5C 482.303,122.416 481.136,120.749 479.5,119.5 Z"/></g>
<g><path style="opacity:1" fill="#a480d3" d="M 456.5,72.5 C 460.744,98.7557 452.077,119.756 430.5,135.5C 427.256,134.537 424.256,133.204 421.5,131.5C 433.392,126.777 441.892,118.443 447,106.5C 447.322,104.311 446.822,102.311 445.5,100.5C 446.117,100.611 446.617,100.944 447,101.5C 449.876,91.7063 453.043,82.0396 456.5,72.5 Z"/></g>
<g><path style="opacity:1" fill="#aa7ad0" d="M 331.5,70.5 C 333.296,72.9 335.63,74.5667 338.5,75.5C 341.256,77.2038 344.256,78.5371 347.5,79.5C 347.5,80.1667 347.833,80.5 348.5,80.5C 348.24,86.6425 349.573,92.3092 352.5,97.5C 343.625,92.9481 335.292,87.6148 327.5,81.5C 329.358,78.1297 330.691,74.463 331.5,70.5 Z"/></g>
<g><path style="opacity:1" fill="#8c64c5" d="M 98.5,53.5 C 100.129,54.6253 101.629,55.9586 103,57.5C 105.861,62.5625 108.694,67.5625 111.5,72.5C 112.11,73.391 112.443,74.391 112.5,75.5C 112.446,79.6358 111.113,83.6358 108.5,87.5C 109.718,88.8027 109.385,89.8027 107.5,90.5C 108.137,93.6352 107.471,96.6352 105.5,99.5C 106.471,100.962 106.138,102.295 104.5,103.5C 105.902,104.842 105.569,105.676 103.5,106C 106.167,106.667 106.167,107.333 103.5,108C 104.167,108.667 104.833,109.333 105.5,110C 104.424,111.726 104.257,113.559 105,115.5C 106.095,116.693 106.928,118.027 107.5,119.5C 106.005,119.989 104.671,120.655 103.5,121.5C 102.167,121.833 100.833,122.167 99.5,122.5C 99.9528,121.542 100.619,120.708 101.5,120C 95.4187,112.703 91.9187,104.536 91,95.5C 90.6667,96.1667 90.3333,96.8333 90,97.5C 89.3333,96.1667 88.6667,96.1667 88,97.5C 87.5,97 87,96.5 86.5,96C 87.6654,94.1315 87.332,92.2982 85.5,90.5C 85.5493,87.076 86.216,83.576 87.5,80C 86.8788,77.5017 87.5455,75.1684 89.5,73C 88.2092,70.9098 88.8758,69.5764 91.5,69C 90.8333,68.6667 90.1667,68.3333 89.5,68C 93.1166,63.814 96.1166,58.9806 98.5,53.5 Z"/></g>
<g><path style="opacity:1" fill="#af75ce" d="M 442.5,90.5 C 443.899,93.6988 444.899,97.0321 445.5,100.5C 446.822,102.311 447.322,104.311 447,106.5C 441.892,118.443 433.392,126.777 421.5,131.5C 417.884,130.686 414.551,129.352 411.5,127.5C 428.09,120.256 438.424,107.923 442.5,90.5 Z"/></g>
<g><path style="opacity:1" fill="#a6a3e2" d="M 239.5,86.5 C 238.942,87.7899 237.942,88.6232 236.5,89C 237.5,89.5 238.5,90 239.5,90.5C 240.967,90.277 242.467,89.9437 244,89.5C 244.816,90.8228 245.983,91.4894 247.5,91.5C 241.057,93.1455 234.391,94.3122 227.5,95C 223.837,95.5717 220.503,96.7383 217.5,98.5C 205.227,101.037 193.561,105.371 182.5,111.5C 179.08,110.189 175.747,110.356 172.5,112C 173.696,112.654 173.696,113.154 172.5,113.5C 170.641,113.112 168.641,113.112 166.5,113.5C 165.913,112.767 165.913,111.767 166.5,110.5C 189.169,97.7219 213.502,89.7219 239.5,86.5 Z"/></g>
<g><path style="opacity:1" fill="#9f6cc8" d="M 112.5,75.5 C 116.902,81.7604 120.735,88.427 124,95.5C 125.696,99.4618 125.863,103.462 124.5,107.5C 120.489,113.686 114.823,117.686 107.5,119.5C 106.928,118.027 106.095,116.693 105,115.5C 104.257,113.559 104.424,111.726 105.5,110C 104.833,109.333 104.167,108.667 103.5,108C 106.167,107.333 106.167,106.667 103.5,106C 105.569,105.676 105.902,104.842 104.5,103.5C 106.138,102.295 106.471,100.962 105.5,99.5C 107.471,96.6352 108.137,93.6352 107.5,90.5C 109.385,89.8027 109.718,88.8027 108.5,87.5C 111.113,83.6358 112.446,79.6358 112.5,75.5 Z"/></g>
<g><path style="opacity:1" fill="#7f5bc4" d="M 217.5,98.5 C 232.185,99.5635 245.852,103.73 258.5,111C 266.413,116.36 271.747,123.526 274.5,132.5C 245.556,131.422 217.89,136.756 191.5,148.5C 190.551,147.848 189.385,147.514 188,147.5C 183.211,148.572 178.377,149.405 173.5,150C 174.308,150.308 174.975,150.808 175.5,151.5C 165.808,152.258 156.475,154.425 147.5,158C 148.833,158.333 150.167,158.667 151.5,159C 147.315,159.331 143.315,160.164 139.5,161.5C 137.9,161.449 136.4,161.116 135,160.5C 134.445,162.721 134.612,165.054 135.5,167.5C 131.266,167.193 127.266,167.86 123.5,169.5C 119.796,167.729 118.296,168.729 119,172.5C 118.167,173.333 117.333,174.167 116.5,175C 114.22,175.212 112.22,176.045 110.5,177.5C 109.817,177.137 109.15,176.804 108.5,176.5C 109.343,173.484 110.843,170.817 113,168.5C 119.94,160.28 127.106,152.28 134.5,144.5C 149.18,131.5 165.18,120.5 182.5,111.5C 193.561,105.371 205.227,101.037 217.5,98.5 Z"/></g>
<g><path style="opacity:0.968" fill="#85acbf" d="M 372.5,108.5 C 379.523,111.675 386.189,115.341 392.5,119.5C 391.974,121.23 390.974,122.564 389.5,123.5C 383.205,119.859 377.205,115.859 371.5,111.5C 372.404,110.791 372.737,109.791 372.5,108.5 Z"/></g>
<g><path style="opacity:0.966" fill="#84acc0" d="M 158.5,110.5 C 158.932,111.71 159.599,112.71 160.5,113.5C 154.344,117.747 148.01,121.747 141.5,125.5C 140.5,123.5 139.5,121.5 138.5,119.5C 144.684,115.407 151.351,112.407 158.5,110.5 Z"/></g>
<g><path style="opacity:1" fill="#939adf" d="M 467.5,63.5 C 474.106,75.3189 478.106,87.9855 479.5,101.5C 479.586,102.496 479.252,103.329 478.5,104C 473.709,105.974 469.042,108.14 464.5,110.5C 468.35,112.591 472.35,114.424 476.5,116C 478.063,116.759 479.063,117.926 479.5,119.5C 479.005,127.81 477.171,135.81 474,143.5C 470.867,146.877 467.034,148.044 462.5,147C 454.963,144.988 447.63,142.488 440.5,139.5C 445.809,133.35 450.976,127.017 456,120.5C 466.358,103.052 468.858,84.7188 463.5,65.5C 464.287,63.8958 465.62,63.2291 467.5,63.5 Z"/></g>
<g><path style="opacity:1" fill="#5955bf" d="M 247.5,91.5 C 277.609,89.5166 306.275,94.85 333.5,107.5C 347.588,114.748 359.421,124.748 369,137.5C 370.528,140.417 371.861,143.417 373,146.5C 373.971,155.619 373.471,164.619 371.5,173.5C 321.43,135.559 266.43,126.392 206.5,146C 174.13,158.884 147.797,179.384 127.5,207.5C 123.846,209.331 120.513,211.664 117.5,214.5C 135.562,185.105 160.229,163.105 191.5,148.5C 217.89,136.756 245.556,131.422 274.5,132.5C 271.747,123.526 266.413,116.36 258.5,111C 245.852,103.73 232.185,99.5635 217.5,98.5C 220.503,96.7383 223.837,95.5717 227.5,95C 234.391,94.3122 241.057,93.1455 247.5,91.5 Z"/></g>
<g><path style="opacity:1" fill="#a57ed3" d="M 103.5,121.5 C 107.371,126.269 112.371,128.603 118.5,128.5C 111.451,132.019 104.118,135.019 96.5,137.5C 96.9175,136.778 97.5842,136.278 98.5,136C 94.6659,133.332 91.3325,130.165 88.5,126.5C 90.8546,125.341 93.1879,124.341 95.5,123.5C 96.8333,123.167 98.1667,122.833 99.5,122.5C 100.833,122.167 102.167,121.833 103.5,121.5 Z"/></g>
<g><path style="opacity:1" fill="#a897dd" d="M 166.5,110.5 C 165.913,111.767 165.913,112.767 166.5,113.5C 168.641,113.112 170.641,113.112 172.5,113.5C 173.696,113.154 173.696,112.654 172.5,112C 175.747,110.356 179.08,110.189 182.5,111.5C 165.18,120.5 149.18,131.5 134.5,144.5C 134.649,143.448 134.483,142.448 134,141.5C 133,142.5 132,143.5 131,144.5C 130.667,143.833 130.333,143.167 130,142.5C 129.632,143.91 128.799,144.91 127.5,145.5C 126.268,144.855 124.935,144.689 123.5,145C 123.116,144.049 122.783,143.216 122.5,142.5C 128.535,136.463 134.869,130.796 141.5,125.5C 148.01,121.747 154.344,117.747 160.5,113.5C 162.517,112.471 164.517,111.471 166.5,110.5 Z"/></g>
<g><path style="opacity:1" fill="#9ab1e9" d="M 256.5,84.5 C 262.167,84.5 267.833,84.5 273.5,84.5C 302.414,85.2293 329.748,91.896 355.5,104.5C 353.194,105.785 351.361,105.118 350,102.5C 349.837,104.387 350.671,105.887 352.5,107C 355.954,109.119 359.121,111.619 362,114.5C 362.718,113.549 363.551,113.383 364.5,114C 371.45,121.405 378.283,128.905 385,136.5C 385.195,134.793 385.195,133.126 385,131.5C 386.667,133.167 388.333,134.833 390,136.5C 390.333,136.167 390.667,135.833 391,135.5C 394.716,139.548 398.05,143.882 401,148.5C 401.333,147.5 401.667,146.5 402,145.5C 406.91,150.525 411.41,155.859 415.5,161.5C 417.557,166.61 420.391,171.277 424,175.5C 425.551,180.872 427.384,185.706 429.5,190C 429.355,190.772 429.022,191.439 428.5,192C 429.665,195.335 431.332,198.335 433.5,201C 434.447,203.478 434.447,205.812 433.5,208C 434.364,210.071 435.697,211.738 437.5,213C 437.167,213.333 436.833,213.667 436.5,214C 440.222,218.421 441.555,223.421 440.5,229C 442.042,237.725 444.208,246.225 447,254.5C 447.498,257.482 447.665,260.482 447.5,263.5C 445.906,259.75 444.739,255.75 444,251.5C 441.266,250.638 441.099,249.805 443.5,249C 442.167,248.333 442.167,247.667 443.5,247C 439.321,241.133 436.487,234.633 435,227.5C 434,232.833 433,232.833 432,227.5C 429.962,232.605 428.295,232.605 427,227.5C 426.667,227.833 426.333,228.167 426,228.5C 425.333,225.833 424.667,223.167 424,220.5C 422.334,221.34 422.167,220.84 423.5,219C 421.699,218.683 421.366,218.016 422.5,217C 420.699,216.683 420.366,216.016 421.5,215C 420.915,213.698 420.249,212.531 419.5,211.5C 420.87,189.443 414.37,170.11 400,153.5C 381.741,132.389 359.574,117.056 333.5,107.5C 306.275,94.85 277.609,89.5166 247.5,91.5C 245.983,91.4894 244.816,90.8228 244,89.5C 242.467,89.9437 240.967,90.277 239.5,90.5C 238.5,90 237.5,89.5 236.5,89C 237.942,88.6232 238.942,87.7899 239.5,86.5C 245.084,85.5075 250.751,84.8408 256.5,84.5 Z"/></g>
<g><path style="opacity:1" fill="#6c85d3" d="M 333.5,107.5 C 359.574,117.056 381.741,132.389 400,153.5C 414.37,170.11 420.87,189.443 419.5,211.5C 418.811,217.558 417.144,223.224 414.5,228.5C 403.765,207.37 389.432,189.037 371.5,173.5C 373.471,164.619 373.971,155.619 373,146.5C 371.861,143.417 370.528,140.417 369,137.5C 359.421,124.748 347.588,114.748 333.5,107.5 Z"/></g>
<g><path style="opacity:1" fill="#f9f9f9" d="M 371.5,173.5 C 389.432,189.037 403.765,207.37 414.5,228.5C 430.548,260.795 435.548,294.795 429.5,330.5C 427.298,345.981 422.632,360.648 415.5,374.5C 410.103,386.299 403.436,397.299 395.5,407.5C 377.122,429.555 354.789,446.222 328.5,457.5C 291.675,471.416 254.342,473.083 216.5,462.5C 195.159,455.831 175.825,445.497 158.5,431.5C 109.913,388.256 90.7466,334.256 101,269.5C 105.751,247.007 114.585,226.341 127.5,207.5C 147.797,179.384 174.13,158.884 206.5,146C 266.43,126.392 321.43,135.559 371.5,173.5 Z"/></g>
<g><path style="opacity:1" fill="#b3957e" d="M 262.5,146.5 C 266.355,145.845 269.188,147.179 271,150.5C 271.667,158.167 271.667,165.833 271,173.5C 268.369,177.629 264.869,178.462 260.5,176C 259.874,175.25 259.374,174.416 259,173.5C 258.333,165.833 258.333,158.167 259,150.5C 259.69,148.65 260.856,147.316 262.5,146.5 Z"/></g>
<g><path style="opacity:1" fill="#885bc4" d="M 191.5,148.5 C 160.229,163.105 135.562,185.105 117.5,214.5C 115.484,216.249 113.818,218.249 112.5,220.5C 103.367,230.069 96.1998,241.069 91,253.5C 83.6626,271.848 78.6626,290.848 76,310.5C 75.7679,309.263 75.2679,308.263 74.5,307.5C 69.7182,283.548 70.8848,259.881 78,236.5C 81.1209,228.239 84.2876,219.906 87.5,211.5C 91.9715,203.228 96.4715,194.895 101,186.5C 103.277,182.92 105.777,179.586 108.5,176.5C 109.15,176.804 109.817,177.137 110.5,177.5C 112.22,176.045 114.22,175.212 116.5,175C 117.333,174.167 118.167,173.333 119,172.5C 118.296,168.729 119.796,167.729 123.5,169.5C 127.266,167.86 131.266,167.193 135.5,167.5C 134.612,165.054 134.445,162.721 135,160.5C 136.4,161.116 137.9,161.449 139.5,161.5C 143.315,160.164 147.315,159.331 151.5,159C 150.167,158.667 148.833,158.333 147.5,158C 156.475,154.425 165.808,152.258 175.5,151.5C 174.975,150.808 174.308,150.308 173.5,150C 178.377,149.405 183.211,148.572 188,147.5C 189.385,147.514 190.551,147.848 191.5,148.5 Z"/></g>
<g><path style="opacity:1" fill="#91b1ea" d="M 415.5,161.5 C 416.496,161.414 417.329,161.748 418,162.5C 423.342,168.518 427.675,175.185 431,182.5C 431.667,183.167 432.333,183.833 433,184.5C 433.265,182.837 432.765,181.337 431.5,180C 432.167,179.333 432.833,179.333 433.5,180C 435.372,182.293 436.872,184.793 438,187.5C 442.743,203.061 447.076,218.727 451,234.5C 452.471,235.381 453.304,236.714 453.5,238.5C 455.699,250.281 458.033,261.947 460.5,273.5C 461.192,272.975 461.692,272.308 462,271.5C 464.157,284.188 463.99,297.688 461.5,312C 462.102,315.09 462.435,318.09 462.5,321C 460.425,324.469 460.091,328.135 461.5,332C 460.649,335.408 459.649,338.741 458.5,342C 459.022,342.561 459.355,343.228 459.5,344C 458.767,351.512 456.767,358.845 453.5,366C 453.833,366.333 454.167,366.667 454.5,367C 451.995,374.858 448.995,382.525 445.5,390C 445.833,391 446.167,392 446.5,393C 444.368,393.918 443.701,395.251 444.5,397C 442.697,398.262 441.364,399.929 440.5,402C 441.167,402.333 441.833,402.667 442.5,403C 440.245,404.664 438.911,406.497 438.5,408.5C 439.127,409.417 439.461,410.417 439.5,411.5C 426.607,431.061 410.607,447.728 391.5,461.5C 390.596,460.791 390.263,459.791 390.5,458.5C 394,455.169 397.666,452.002 401.5,449C 400.833,448.667 400.167,448.333 399.5,448C 405.957,442.226 410.79,435.393 414,427.5C 418.268,421.283 422.768,415.283 427.5,409.5C 433.587,396.175 438.92,382.509 443.5,368.5C 442.96,367.252 442.293,366.085 441.5,365C 442.864,359.891 444.53,354.557 446.5,349C 446.353,347.026 446.019,345.026 445.5,343C 446.649,339.741 447.649,336.408 448.5,333C 448.418,329.288 448.418,325.622 448.5,322C 449.167,320.333 449.833,318.667 450.5,317C 449.967,313.914 449.633,310.747 449.5,307.5C 450.074,305.941 450.74,304.441 451.5,303C 451.055,299.779 451.055,296.279 451.5,292.5C 449.847,290.413 449.514,287.913 450.5,285C 449.173,277.87 448.173,270.703 447.5,263.5C 447.665,260.482 447.498,257.482 447,254.5C 444.208,246.225 442.042,237.725 440.5,229C 441.555,223.421 440.222,218.421 436.5,214C 436.833,213.667 437.167,213.333 437.5,213C 435.697,211.738 434.364,210.071 433.5,208C 434.447,205.812 434.447,203.478 433.5,201C 431.332,198.335 429.665,195.335 428.5,192C 429.022,191.439 429.355,190.772 429.5,190C 427.384,185.706 425.551,180.872 424,175.5C 420.391,171.277 417.557,166.61 415.5,161.5 Z"/></g>
<g><path style="opacity:1" fill="#b3957e" d="M 187.5,166.5 C 190.272,166.22 192.772,166.887 195,168.5C 198.081,174.331 201.415,179.998 205,185.5C 206.478,192.009 203.978,195.175 197.5,195C 196.069,194.535 194.903,193.701 194,192.5C 190.919,186.669 187.585,181.002 184,175.5C 182.98,171.553 184.147,168.553 187.5,166.5 Z"/></g>
<g><path style="opacity:1" fill="#b3967f" d="M 337.5,166.5 C 343.502,166.005 346.335,168.672 346,174.5C 342.545,181.247 338.711,187.747 334.5,194C 327.672,195.824 324.506,193.324 325,186.5C 328.441,179.264 332.607,172.598 337.5,166.5 Z"/></g>
<g><path style="opacity:1" fill="#a789d7" d="M 134.5,144.5 C 127.106,152.28 119.94,160.28 113,168.5C 110.843,170.817 109.343,173.484 108.5,176.5C 105.777,179.586 103.277,182.92 101,186.5C 96.4715,194.895 91.9715,203.228 87.5,211.5C 85.665,212.122 84.4983,213.456 84,215.5C 83.4646,213.729 82.6313,213.396 81.5,214.5C 78.8908,217.383 77.0575,220.717 76,224.5C 75.3086,222.109 74.3086,222.109 73,224.5C 72,227.167 71,229.833 70,232.5C 69.6667,232.167 69.3333,231.833 69,231.5C 68.6232,232.942 67.7899,233.942 66.5,234.5C 77.0568,198.687 95.7235,168.021 122.5,142.5C 122.783,143.216 123.116,144.049 123.5,145C 124.935,144.689 126.268,144.855 127.5,145.5C 128.799,144.91 129.632,143.91 130,142.5C 130.333,143.167 130.667,143.833 131,144.5C 132,143.5 133,142.5 134,141.5C 134.483,142.448 134.649,143.448 134.5,144.5 Z"/></g>
<g><path style="opacity:1" fill="#b3957e" d="M 132.5,221.5 C 141.66,223.831 149.826,228.165 157,234.5C 157.878,239.307 155.878,242.307 151,243.5C 144.452,240.142 137.952,236.642 131.5,233C 128.689,228.856 129.022,225.022 132.5,221.5 Z"/></g>
<g><path style="opacity:1" fill="#b3967e" d="M 392.5,221.5 C 397.378,220.768 400.378,222.768 401.5,227.5C 401.281,228.938 400.781,230.271 400,231.5C 393.294,236.02 386.294,240.02 379,243.5C 374.237,242.301 372.237,239.301 373,234.5C 379.135,229.523 385.635,225.19 392.5,221.5 Z"/></g>
<g><path style="opacity:1" fill="#a47dd2" d="M 87.5,211.5 C 84.2876,219.906 81.1209,228.239 78,236.5C 70.8848,259.881 69.7182,283.548 74.5,307.5C 73.8031,309.071 73.4698,310.571 73.5,312C 74.6589,316.151 75.6589,320.318 76.5,324.5C 75.8333,324.833 75.1667,325.167 74.5,325.5C 75.8634,327.674 76.1967,329.841 75.5,332C 77.3767,337.056 79.3767,342.056 81.5,347C 80.8333,347.333 80.1667,347.667 79.5,348C 81.1667,351 82.8333,354 84.5,357C 83.8333,357.333 83.1667,357.667 82.5,358C 84.5,359.667 86.5,361.333 88.5,363C 87.7203,364.073 87.887,365.24 89,366.5C 92.7501,369.744 95.9168,373.411 98.5,377.5C 92.1417,375.067 86.9751,371.067 83,365.5C 78.0141,350.559 73.1807,335.559 68.5,320.5C 66.8687,326.399 64.8687,332.066 62.5,337.5C 56.0911,302.84 57.4245,268.507 66.5,234.5C 67.7899,233.942 68.6232,232.942 69,231.5C 69.3333,231.833 69.6667,232.167 70,232.5C 71,229.833 72,227.167 73,224.5C 74.3086,222.109 75.3086,222.109 76,224.5C 77.0575,220.717 78.8908,217.383 81.5,214.5C 82.6313,213.396 83.4646,213.729 84,215.5C 84.4983,213.456 85.665,212.122 87.5,211.5 Z"/></g>
<g><path style="opacity:1" fill="#573529" d="M 357.5,240.5 C 367.745,239.57 370.745,243.736 366.5,253C 339.665,269.252 312.665,285.252 285.5,301C 282.708,318.131 273.042,324.131 256.5,319C 251.725,315.444 248.725,310.778 247.5,305C 229.297,294.399 210.963,284.066 192.5,274C 187.179,269.265 186.179,263.765 189.5,257.5C 192.438,254.031 196.104,252.864 200.5,254C 218.671,264.587 237.005,274.92 255.5,285C 263.392,283.686 271.058,284.519 278.5,287.5C 305.11,272.206 331.444,256.54 357.5,240.5 Z"/></g>
<g><path style="opacity:1" fill="#93ace8" d="M 419.5,211.5 C 420.249,212.531 420.915,213.698 421.5,215C 420.366,216.016 420.699,216.683 422.5,217C 421.366,218.016 421.699,218.683 423.5,219C 422.167,220.84 422.334,221.34 424,220.5C 424.667,223.167 425.333,225.833 426,228.5C 426.333,228.167 426.667,227.833 427,227.5C 428.295,232.605 429.962,232.605 432,227.5C 433,232.833 434,232.833 435,227.5C 436.487,234.633 439.321,241.133 443.5,247C 442.167,247.667 442.167,248.333 443.5,249C 441.099,249.805 441.266,250.638 444,251.5C 444.739,255.75 445.906,259.75 447.5,263.5C 448.173,270.703 449.173,277.87 450.5,285C 449.514,287.913 449.847,290.413 451.5,292.5C 451.055,296.279 451.055,299.779 451.5,303C 450.74,304.441 450.074,305.941 449.5,307.5C 449.633,310.747 449.967,313.914 450.5,317C 449.833,318.667 449.167,320.333 448.5,322C 448.418,325.622 448.418,329.288 448.5,333C 447.649,336.408 446.649,339.741 445.5,343C 446.019,345.026 446.353,347.026 446.5,349C 444.53,354.557 442.864,359.891 441.5,365C 442.293,366.085 442.96,367.252 443.5,368.5C 438.92,382.509 433.587,396.175 427.5,409.5C 422.768,415.283 418.268,421.283 414,427.5C 410.79,435.393 405.957,442.226 399.5,448C 400.167,448.333 400.833,448.667 401.5,449C 397.666,452.002 394,455.169 390.5,458.5C 389.188,455.592 387.855,452.592 386.5,449.5C 385.817,449.863 385.15,450.196 384.5,450.5C 387.429,446.394 390.596,442.394 394,438.5C 395.705,436.423 396.872,434.09 397.5,431.5C 413.537,415.947 425.37,397.614 433,376.5C 437.949,362.025 437.615,347.692 432,333.5C 431.148,332.429 430.315,331.429 429.5,330.5C 435.548,294.795 430.548,260.795 414.5,228.5C 417.144,223.224 418.811,217.558 419.5,211.5 Z"/></g>
<g><path style="opacity:1" fill="#90b5ec" d="M 355.5,104.5 C 361.087,106.295 366.421,108.628 371.5,111.5C 377.205,115.859 383.205,119.859 389.5,123.5C 453.073,172.344 481.573,237.01 475,317.5C 471.115,352.01 459.281,383.343 439.5,411.5C 439.461,410.417 439.127,409.417 438.5,408.5C 438.911,406.497 440.245,404.664 442.5,403C 441.833,402.667 441.167,402.333 440.5,402C 441.364,399.929 442.697,398.262 444.5,397C 443.701,395.251 444.368,393.918 446.5,393C 446.167,392 445.833,391 445.5,390C 448.995,382.525 451.995,374.858 454.5,367C 454.167,366.667 453.833,366.333 453.5,366C 456.767,358.845 458.767,351.512 459.5,344C 459.355,343.228 459.022,342.561 458.5,342C 459.649,338.741 460.649,335.408 461.5,332C 460.091,328.135 460.425,324.469 462.5,321C 462.435,318.09 462.102,315.09 461.5,312C 463.99,297.688 464.157,284.188 462,271.5C 461.692,272.308 461.192,272.975 460.5,273.5C 458.033,261.947 455.699,250.281 453.5,238.5C 453.304,236.714 452.471,235.381 451,234.5C 447.076,218.727 442.743,203.061 438,187.5C 436.872,184.793 435.372,182.293 433.5,180C 432.833,179.333 432.167,179.333 431.5,180C 432.765,181.337 433.265,182.837 433,184.5C 432.333,183.833 431.667,183.167 431,182.5C 427.675,175.185 423.342,168.518 418,162.5C 417.329,161.748 416.496,161.414 415.5,161.5C 411.41,155.859 406.91,150.525 402,145.5C 401.667,146.5 401.333,147.5 401,148.5C 398.05,143.882 394.716,139.548 391,135.5C 390.667,135.833 390.333,136.167 390,136.5C 388.333,134.833 386.667,133.167 385,131.5C 385.195,133.126 385.195,134.793 385,136.5C 378.283,128.905 371.45,121.405 364.5,114C 363.551,113.383 362.718,113.549 362,114.5C 359.121,111.619 355.954,109.119 352.5,107C 350.671,105.887 349.837,104.387 350,102.5C 351.361,105.118 353.194,105.785 355.5,104.5 Z"/></g>
<g><path style="opacity:1" fill="#a674cf" d="M 112.5,220.5 C 84.539,272.749 82.2056,326.083 105.5,380.5C 102.843,380.065 100.509,379.065 98.5,377.5C 95.9168,373.411 92.7501,369.744 89,366.5C 87.887,365.24 87.7203,364.073 88.5,363C 86.5,361.333 84.5,359.667 82.5,358C 83.1667,357.667 83.8333,357.333 84.5,357C 82.8333,354 81.1667,351 79.5,348C 80.1667,347.667 80.8333,347.333 81.5,347C 79.3767,342.056 77.3767,337.056 75.5,332C 76.1967,329.841 75.8634,327.674 74.5,325.5C 75.1667,325.167 75.8333,324.833 76.5,324.5C 75.6589,320.318 74.6589,316.151 73.5,312C 73.4698,310.571 73.8031,309.071 74.5,307.5C 75.2679,308.263 75.7679,309.263 76,310.5C 78.6626,290.848 83.6626,271.848 91,253.5C 96.1998,241.069 103.367,230.069 112.5,220.5 Z"/></g>
<g><path style="opacity:1" fill="#b2957d" d="M 112.5,296.5 C 120.174,296.334 127.841,296.5 135.5,297C 140.285,300.26 140.619,303.927 136.5,308C 128.167,308.667 119.833,308.667 111.5,308C 107.376,303.695 107.709,299.862 112.5,296.5 Z"/></g>
<g><path style="opacity:1" fill="#b2957d" d="M 394.5,296.5 C 401.841,296.334 409.174,296.5 416.5,297C 422.23,299.605 422.897,303.272 418.5,308C 410.167,308.667 401.833,308.667 393.5,308C 389.307,303.683 389.64,299.85 394.5,296.5 Z"/></g>
<g><path style="opacity:1" fill="#7463c4" d="M 127.5,207.5 C 114.585,226.341 105.751,247.007 101,269.5C 90.7466,334.256 109.913,388.256 158.5,431.5C 158.565,431.938 158.399,432.272 158,432.5C 148.401,427.95 138.901,423.284 129.5,418.5C 122.19,409.896 115.857,400.563 110.5,390.5C 112.741,389.379 115.075,388.213 117.5,387C 113.31,385.074 109.31,382.907 105.5,380.5C 82.2056,326.083 84.539,272.749 112.5,220.5C 113.818,218.249 115.484,216.249 117.5,214.5C 120.513,211.664 123.846,209.331 127.5,207.5 Z"/></g>
<g><path style="opacity:0.988" fill="#fed450" d="M 98.5,377.5 C 100.509,379.065 102.843,380.065 105.5,380.5C 109.31,382.907 113.31,385.074 117.5,387C 115.075,388.213 112.741,389.379 110.5,390.5C 105.085,392.371 99.7518,394.538 94.5,397C 92.0038,398.331 90.0038,400.164 88.5,402.5C 85.8095,405.039 83.6428,408.039 82,411.5C 77.8044,425.622 73.3044,439.622 68.5,453.5C 63.9081,439.557 59.4081,425.557 55,411.5C 52.2233,405.057 47.7233,400.223 41.5,397C 33.7508,393.861 26.0841,390.528 18.5,387C 26.6807,382.743 35.014,378.743 43.5,375C 48.3816,371.786 52.2149,367.619 55,362.5C 57.6589,354.194 60.1589,345.861 62.5,337.5C 64.8687,332.066 66.8687,326.399 68.5,320.5C 73.1807,335.559 78.0141,350.559 83,365.5C 86.9751,371.067 92.1417,375.067 98.5,377.5 Z"/></g>
<g><path style="opacity:1" fill="#b3967e" d="M 148.5,362.5 C 156.143,362.143 158.643,365.476 156,372.5C 150.415,376.377 144.582,379.877 138.5,383C 130.285,384.615 127.619,381.448 130.5,373.5C 136.564,369.808 142.564,366.141 148.5,362.5 Z"/></g>
<g><path style="opacity:1" fill="#b3967f" d="M 376.5,362.5 C 378.199,362.34 379.866,362.506 381.5,363C 387.167,366.167 392.833,369.333 398.5,372.5C 402.434,375.958 402.434,379.458 398.5,383C 396.167,383.667 393.833,383.667 391.5,383C 385.669,379.919 380.002,376.585 374.5,373C 371.602,368.766 372.269,365.266 376.5,362.5 Z"/></g>
<g><path style="opacity:1" fill="#7892db" d="M 429.5,330.5 C 430.315,331.429 431.148,332.429 432,333.5C 437.615,347.692 437.949,362.025 433,376.5C 425.37,397.614 413.537,415.947 397.5,431.5C 394.482,433.526 391.482,435.526 388.5,437.5C 393.621,432.722 397.954,427.388 401.5,421.5C 407.66,413.563 411.827,404.563 414,394.5C 416.048,387.475 416.548,380.808 415.5,374.5C 422.632,360.648 427.298,345.981 429.5,330.5 Z"/></g>
<g><path style="opacity:1" fill="#747dd2" d="M 415.5,374.5 C 416.548,380.808 416.048,387.475 414,394.5C 411.827,404.563 407.66,413.563 401.5,421.5C 400.883,421.389 400.383,421.056 400,420.5C 396.333,422.833 393.333,425.833 391,429.5C 392.54,422.255 394.04,414.921 395.5,407.5C 403.436,397.299 410.103,386.299 415.5,374.5 Z"/></g>
<g><path style="opacity:1" fill="#9a80d5" d="M 110.5,390.5 C 115.857,400.563 122.19,409.896 129.5,418.5C 141.789,434.291 156.456,447.291 173.5,457.5C 173.083,458.124 172.416,458.457 171.5,458.5C 162.744,456.025 154.077,453.358 145.5,450.5C 144.5,450.5 143.5,450.5 142.5,450.5C 142.02,453.443 141.02,456.11 139.5,458.5C 118.838,443.183 101.838,424.516 88.5,402.5C 90.0038,400.164 92.0038,398.331 94.5,397C 99.7518,394.538 105.085,392.371 110.5,390.5 Z"/></g>
<g><path style="opacity:1" fill="#b3967e" d="M 196.5,410.5 C 203.329,409.828 206.163,412.828 205,419.5C 201.292,425.751 197.459,431.917 193.5,438C 186.718,439.875 183.552,437.375 184,430.5C 187.927,423.637 192.094,416.97 196.5,410.5 Z"/></g>
<g><path style="opacity:1" fill="#b3957d" d="M 327.5,410.5 C 333.308,409.652 337.142,411.985 339,417.5C 342.03,422.226 344.53,427.226 346.5,432.5C 345.349,438.091 342.016,439.925 336.5,438C 332.271,432.099 328.437,425.932 325,419.5C 323.927,415.9 324.76,412.9 327.5,410.5 Z"/></g>
<g><path style="opacity:1" fill="#6d69c8" d="M 129.5,418.5 C 138.901,423.284 148.401,427.95 158,432.5C 158.399,432.272 158.565,431.938 158.5,431.5C 175.825,445.497 195.159,455.831 216.5,462.5C 216.649,463.552 216.483,464.552 216,465.5C 213.629,465.354 211.296,464.354 209,462.5C 208.383,463.449 208.549,464.282 209.5,465C 205.879,465.941 202.713,465.108 200,462.5C 197.513,463.713 195.013,464.713 192.5,465.5C 190.929,464.691 189.262,464.357 187.5,464.5C 182.55,462.692 177.883,460.358 173.5,457.5C 156.456,447.291 141.789,434.291 129.5,418.5 Z"/></g>
<g><path style="opacity:1" fill="#b3957e" d="M 263.5,427.5 C 266.617,427.642 269.117,428.976 271,431.5C 271.667,439.5 271.667,447.5 271,455.5C 267,460.833 263,460.833 259,455.5C 258.333,447.5 258.333,439.5 259,431.5C 260.397,429.93 261.897,428.596 263.5,427.5 Z"/></g>
<g><path style="opacity:1" fill="#8188d7" d="M 395.5,407.5 C 394.04,414.921 392.54,422.255 391,429.5C 393.333,425.833 396.333,422.833 400,420.5C 400.383,421.056 400.883,421.389 401.5,421.5C 397.954,427.388 393.621,432.722 388.5,437.5C 387.5,438.167 386.5,438.833 385.5,439.5C 386.411,437.049 387.244,434.715 388,432.5C 367.714,452.567 343.881,466.9 316.5,475.5C 317.32,473.86 318.153,472.193 319,470.5C 319.333,470.833 319.667,471.167 320,471.5C 320.508,469.096 321.675,468.429 323.5,469.5C 326.985,468.318 329.318,466.651 330.5,464.5C 330.261,462.533 330.594,460.699 331.5,459C 330.756,457.961 329.756,457.461 328.5,457.5C 354.789,446.222 377.122,429.555 395.5,407.5 Z"/></g>
<g><path style="opacity:1" fill="#367b8d" d="M 390.5,458.5 C 390.263,459.791 390.596,460.791 391.5,461.5C 393.036,466.109 394.37,470.776 395.5,475.5C 390.715,475.543 385.715,475.71 380.5,476C 374.033,478.972 369.033,483.472 365.5,489.5C 363.147,487.14 361.147,484.473 359.5,481.5C 357.552,478.379 355.385,475.379 353,472.5C 352.333,471.167 352.333,469.833 353,468.5C 363.414,462.376 373.914,456.376 384.5,450.5C 385.15,450.196 385.817,449.863 386.5,449.5C 387.855,452.592 389.188,455.592 390.5,458.5 Z"/></g>
<g><path style="opacity:1" fill="#377b8d" d="M 145.5,450.5 C 155.591,458.057 165.924,465.39 176.5,472.5C 174.89,474.725 173.557,477.059 172.5,479.5C 170.147,481.86 168.147,484.527 166.5,487.5C 163.716,485.546 161.383,483.046 159.5,480C 152.901,473.754 145.235,471.921 136.5,474.5C 135.702,474.043 135.369,473.376 135.5,472.5C 136.635,467.764 137.968,463.097 139.5,458.5C 141.02,456.11 142.02,453.443 142.5,450.5C 143.5,450.5 144.5,450.5 145.5,450.5 Z"/></g>
<g><path style="opacity:1" fill="#90a3e4" d="M 397.5,431.5 C 396.872,434.09 395.705,436.423 394,438.5C 390.596,442.394 387.429,446.394 384.5,450.5C 373.914,456.376 363.414,462.376 353,468.5C 352.333,469.833 352.333,471.167 353,472.5C 355.385,475.379 357.552,478.379 359.5,481.5C 335.817,493.004 310.817,499.671 284.5,501.5C 281.482,501.665 278.482,501.498 275.5,501C 300.204,493.812 323.204,483.145 344.5,469C 345.618,467.926 346.618,466.76 347.5,465.5C 361.935,459.293 374.602,450.626 385.5,439.5C 386.5,438.833 387.5,438.167 388.5,437.5C 391.482,435.526 394.482,433.526 397.5,431.5 Z"/></g>
<g><path style="opacity:1" fill="#797dd2" d="M 328.5,457.5 C 329.756,457.461 330.756,457.961 331.5,459C 330.594,460.699 330.261,462.533 330.5,464.5C 329.318,466.651 326.985,468.318 323.5,469.5C 321.675,468.429 320.508,469.096 320,471.5C 319.667,471.167 319.333,470.833 319,470.5C 318.153,472.193 317.32,473.86 316.5,475.5C 295.018,482.001 273.018,484.334 250.5,482.5C 228.202,480.679 207.202,474.679 187.5,464.5C 189.262,464.357 190.929,464.691 192.5,465.5C 195.013,464.713 197.513,463.713 200,462.5C 202.713,465.108 205.879,465.941 209.5,465C 208.549,464.282 208.383,463.449 209,462.5C 211.296,464.354 213.629,465.354 216,465.5C 216.483,464.552 216.649,463.552 216.5,462.5C 254.342,473.083 291.675,471.416 328.5,457.5 Z"/></g>
<g><path style="opacity:0.979" fill="#82adbf" d="M 135.5,472.5 C 135.369,473.376 135.702,474.043 136.5,474.5C 145.235,471.921 152.901,473.754 159.5,480C 161.383,483.046 163.716,485.546 166.5,487.5C 160.438,497.068 153.772,506.235 146.5,515C 134.757,519.467 127.757,515.633 125.5,503.5C 128.061,492.821 131.394,482.487 135.5,472.5 Z"/></g>
<g><path style="opacity:0.98" fill="#82adbf" d="M 395.5,475.5 C 399.273,484.488 402.273,493.821 404.5,503.5C 402.243,515.633 395.243,519.467 383.5,515C 382,513.5 380.5,512 379,510.5C 374.479,503.443 369.979,496.443 365.5,489.5C 369.033,483.472 374.033,478.972 380.5,476C 385.715,475.71 390.715,475.543 395.5,475.5 Z"/></g>
<g><path style="opacity:1" fill="#968ddb" d="M 145.5,450.5 C 154.077,453.358 162.744,456.025 171.5,458.5C 172.416,458.457 173.083,458.124 173.5,457.5C 177.883,460.358 182.55,462.692 187.5,464.5C 207.202,474.679 228.202,480.679 250.5,482.5C 228.686,487.006 206.686,487.34 184.5,483.5C 183.584,483.543 182.917,483.876 182.5,484.5C 178.849,483.341 175.515,481.674 172.5,479.5C 173.557,477.059 174.89,474.725 176.5,472.5C 165.924,465.39 155.591,458.057 145.5,450.5 Z"/></g>
<g><path style="opacity:1" fill="#9397df" d="M 385.5,439.5 C 374.602,450.626 361.935,459.293 347.5,465.5C 346.618,466.76 345.618,467.926 344.5,469C 323.204,483.145 300.204,493.812 275.5,501C 278.482,501.498 281.482,501.665 284.5,501.5C 249.015,504.919 215.015,499.253 182.5,484.5C 182.917,483.876 183.584,483.543 184.5,483.5C 206.686,487.34 228.686,487.006 250.5,482.5C 273.018,484.334 295.018,482.001 316.5,475.5C 343.881,466.9 367.714,452.567 388,432.5C 387.244,434.715 386.411,437.049 385.5,439.5 Z"/></g>
</svg>
