<?xml version="1.0" encoding="iso-8859-1"?>
<!-- Uploaded to: SVG Repo, www.svgrepo.com, Generator: SVG Repo Mixer Tools -->
<svg height="800px" width="800px" version="1.1" id="Layer_1" xmlns="http://www.w3.org/2000/svg" xmlns:xlink="http://www.w3.org/1999/xlink" 
	 viewBox="0 0 512 512" xml:space="preserve">
<g>
	<path style="fill:#E6E6E6;" d="M457.143,475.429H54.857c-20.197,0-36.571-16.375-36.571-36.571V36.571
		C18.286,16.375,34.661,0,54.857,0h402.286c20.197,0,36.571,16.375,36.571,36.571v402.286
		C493.714,459.054,477.339,475.429,457.143,475.429"/>
	<path style="fill:#FFFFFF;" d="M438.857,237.714c0,100.992-81.865,182.857-182.857,182.857S73.143,338.706,73.143,237.714
		S155.008,54.857,256,54.857S438.857,136.722,438.857,237.714"/>
	<g>
		<polygon style="fill:#AEAEAF;" points="155.429,512 100.571,512 91.429,475.429 164.571,475.429 		"/>
		<polygon style="fill:#AEAEAF;" points="411.429,512 356.571,512 347.429,475.429 420.571,475.429 		"/>
	</g>
	<g>
		<path style="fill:#D13834;" d="M256,118.857c-5.056,0-9.143-4.087-9.143-9.143V91.429c0-5.056,4.087-9.143,9.143-9.143
			s9.143,4.087,9.143,9.143v18.286C265.143,114.77,261.056,118.857,256,118.857"/>
		<path style="fill:#D13834;" d="M256,393.143c-5.056,0-9.143-4.087-9.143-9.143v-18.286c0-5.056,4.087-9.143,9.143-9.143
			s9.143,4.087,9.143,9.143V384C265.143,389.056,261.056,393.143,256,393.143"/>
		<path style="fill:#D13834;" d="M128,246.857h-18.286c-5.056,0-9.143-4.087-9.143-9.143s4.087-9.143,9.143-9.143H128
			c5.056,0,9.143,4.087,9.143,9.143S133.056,246.857,128,246.857"/>
		<path style="fill:#D13834;" d="M402.286,246.857H384c-5.056,0-9.143-4.087-9.143-9.143s4.087-9.143,9.143-9.143h18.286
			c5.056,0,9.143,4.087,9.143,9.143S407.342,246.857,402.286,246.857"/>
		<path style="fill:#D13834;" d="M245.551,184.057c-19.721,6.473-35.264,22.857-35.264,44.507c0,24.713,21.001,45.723,45.723,45.723
			c21.65-0.009,37.193-15.845,44.507-35.264c3.337-8.878,28.626-83.593,28.626-83.593S254.428,181.14,245.551,184.057"/>
	</g>
</g>
</svg>